<?xml version="1.0" encoding="UTF-8" standalone="no"?>
<!-- Created with Inkscape (http://www.inkscape.org/) -->

<svg
   xmlns:dc="http://purl.org/dc/elements/1.1/"
   xmlns:cc="http://creativecommons.org/ns#"
   xmlns:rdf="http://www.w3.org/1999/02/22-rdf-syntax-ns#"
   xmlns:svg="http://www.w3.org/2000/svg"
   xmlns="http://www.w3.org/2000/svg"
   xmlns:sodipodi="http://sodipodi.sourceforge.net/DTD/sodipodi-0.dtd"
   xmlns:inkscape="http://www.inkscape.org/namespaces/inkscape"
   version="1.1"
   id="svg3713"
   width="400"
   height="400"
   viewBox="0 0 400 400"
   sodipodi:docname="amphaal.svg"
   inkscape:version="0.92.4 (5da689c313, 2019-01-14)">
  <metadata
     id="metadata3719">
    <rdf:RDF>
      <cc:Work
         rdf:about="">
        <dc:format>image/svg+xml</dc:format>
        <dc:type
           rdf:resource="http://purl.org/dc/dcmitype/StillImage" />
        <dc:title></dc:title>
      </cc:Work>
    </rdf:RDF>
  </metadata>
  <defs
     id="defs3717" />
  <sodipodi:namedview
     pagecolor="#ffffff"
     bordercolor="#666666"
     borderopacity="1"
     objecttolerance="10"
     gridtolerance="10"
     guidetolerance="10"
     inkscape:pageopacity="0"
     inkscape:pageshadow="2"
     inkscape:window-width="1920"
     inkscape:window-height="1017"
     id="namedview3715"
     showgrid="false"
     inkscape:zoom="1.18"
     inkscape:cx="121.16328"
     inkscape:cy="210.29328"
     inkscape:window-x="1912"
     inkscape:window-y="-8"
     inkscape:window-maximized="1"
     inkscape:current-layer="svg3713" />
  <path
     style="fill:#000000;stroke:#000000;stroke-width:1px;stroke-linecap:butt;stroke-linejoin:miter;stroke-opacity:1"
     d="M 66.525424,52.966101 144.49153,105.08475 33.474576,147.45763 0.84745763,252.11864 88.559322,366.10169 238.98305,385.16949 291.1017,340.25424 h -77.96611 l -66.94915,-22.45763 1.27119,-2.11864 111.01695,-2.11865 34.32203,-20.33898 -18.22034,-26.27119 -0.42373,-55.08474 -41.52542,-43.22034 -76.27119,-3.38983 -30.50847,52.54237 19.06779,34.74576 48.72882,6.35593 16.52542,-23.72881 -25,-32.20339 -3.38983,35.59322 -19.0678,-4.23729 V 202.9661 l 24.15255,-19.91525 51.69491,45.33898 -1.69491,32.20339 -26.69492,28.81356 -80.9322,-5.08475 -24.57627,-55.50847 -18.220342,29.66102 -3.813559,-3.81356 3.38983,-48.72882 17.372881,-24.57627 80.50848,-47.45763 104.66101,53.38984 28.38983,146.61017 26.69492,52.54237 57.20339,-51.69492 L 392.37288,138.55932 203.81356,5.5084742 Z"
     id="path3725"
     inkscape:connector-curvature="0" />
</svg>
